<svg xmlns="http://www.w3.org/2000/svg" viewBox="0 0 320 320" role="img" aria-label="SanitiseAI bear logo">
  <rect width="320" height="320" rx="56" fill="#ffffff"/>
  <g fill="#1c3658">
    <circle cx="96" cy="88" r="32"/>
    <circle cx="224" cy="88" r="32"/>
    <path d="M63 111c15-23 42-37 73-37h48c31 0 58 14 73 37l16 43c4 11-2 23-13 27l-92 38c-5 2-11 2-16 0l-92-38c-11-4-17-16-13-27l16-43z"/>
  </g>
  <g fill="#ffffff">
    <ellipse cx="160" cy="163" rx="38" ry="34"/>
    <path d="M116 141c7-18 20-28 37-28 15 0 29 7 36 20-9-6-19-9-30-9-16 0-31 7-43 17z" opacity=".96"/>
  </g>
  <g fill="#1c3658">
    <path d="M121 140c7-12 18-18 31-18 11 0 22 5 28 14-7-4-15-6-24-6-13 0-25 4-35 10z"/>
    <path d="M134 180c0-8 7-15 18-18l8-2 8 2c11 3 18 10 18 18 0 10-10 20-26 20s-26-10-26-20z"/>
  </g>
  <path d="M151 181c3 8 2 17-3 24-4 6-10 8-16 8-8 0-14-3-19-8l6-6c4 4 8 6 13 6 4 0 8-1 11-5 3-4 4-9 3-14h5z" fill="#1c3658"/>
  <path d="M169 181h5c-1 5 0 10 3 14 3 4 7 5 11 5 5 0 9-2 13-6l6 6c-5 5-11 8-19 8-6 0-12-2-16-8-5-7-6-16-3-24z" fill="#1c3658"/>
  <path d="M96 126c9 0 17 5 22 13-7-3-14-4-20-4-9 0-17 3-24 8 4-10 12-17 22-17z" fill="#ffffff"/>
  <path d="M224 126c10 0 18 7 22 17-7-5-15-8-24-8-6 0-13 1-20 4 5-8 13-13 22-13z" fill="#ffffff"/>
</svg>
