<svg xmlns="http://www.w3.org/2000/svg" viewBox="0 0 640 160" role="img" aria-label="Matrix Anonymiser detector logo">
  <defs>
    <linearGradient id="g" x1="0" y1="0" x2="1" y2="1">
      <stop offset="0%" stop-color="#7cffbc"/>
      <stop offset="100%" stop-color="#13db7b"/>
    </linearGradient>
  </defs>
  <rect x="0" y="0" width="640" height="160" rx="18" fill="#0b1010" stroke="#1f3a30"/>
  <g opacity="0.2" stroke="#3dff9f">
    <path d="M20 35h600M20 80h600M20 125h600"/>
    <path d="M80 15v130M200 15v130M320 15v130M440 15v130M560 15v130"/>
  </g>
  <g transform="translate(24,20)">
    <rect x="0" y="0" width="120" height="120" rx="16" fill="#0f1715" stroke="url(#g)"/>
    <circle cx="60" cy="60" r="34" fill="none" stroke="#2f5e4b" stroke-width="2"/>
    <circle cx="60" cy="60" r="22" fill="none" stroke="#2a4f40" stroke-width="1.8"/>
    <circle cx="60" cy="60" r="11" fill="none" stroke="#244638" stroke-width="1.4"/>
    <path d="M60 60 L89 40" stroke="url(#g)" stroke-width="4" stroke-linecap="round"/>
    <circle cx="89" cy="40" r="4.5" fill="url(#g)"/>
    <circle cx="60" cy="60" r="3.5" fill="#9dffd0"/>
  </g>
  <text x="164" y="70" fill="#d6ffea" font-family="IBM Plex Mono, Space Mono, monospace" font-size="34" font-weight="700" letter-spacing="2">MATRIX</text>
  <text x="164" y="112" fill="#69ffb4" font-family="IBM Plex Mono, Space Mono, monospace" font-size="28" font-weight="700" letter-spacing="1.5">ANONYMISER</text>
  <text x="164" y="136" fill="#88c8aa" font-family="IBM Plex Mono, Space Mono, monospace" font-size="13" letter-spacing="1">DETECTOR MODE</text>
</svg>
